<?xml version="1.0" encoding="utf-8"?>
<svg xmlns="http://www.w3.org/2000/svg">
<symbol id="arrow_angle-down" viewBox="0 0 24 24">
    <path width="24px" height="24px" aria-hidden="true" fill="none" stroke="currentColor" stroke-linecap="round" stroke-linejoin="round" stroke-width="2" d="m19 9-7 7-7-7"/>
</symbol>
<symbol id="dots-horizontal" viewBox="0 0 24 24">
    <path aria-hidden="true" fill="none" stroke="currentColor" stroke-linecap="round" stroke-width="2" d="M6 12h.01m6 0h.01m5.99 0h.01"/>
<symbol>
<symbol id="headphones" viewBox="0 0 24 24"> 
      <path width="24px" height="24px"  aria-hidden="true" fill="currentColor" fill-rule="evenodd" d="M12 5a7 7 0 0 0-7 7v1.17c.313-.11.65-.17 1-.17h2a1 1 0 0 1 1 1v6a1 1 0 0 1-1 1H6a3 3 0 0 1-3-3v-6a9 9 0 0 1 18 0v6a3 3 0 0 1-3 3h-2a1 1 0 0 1-1-1v-6a1 1 0 0 1 1-1h2c.35 0 .687.06 1 .17V12a7 7 0 0 0-7-7Z" clip-rule="evenodd"/> 
<symbol>
<symbol id="play" viewBox="0 -960 960 960"> 
  <path d="m380-300 280-180-280-180v360ZM480-80q-83 0-156-31.5T197-197q-54-54-85.5-127T80-480q0-83 31.5-156T197-763q54-54 127-85.5T480-880q83 0 156 31.5T763-763q54 54 85.5 127T880-480q0 83-31.5 156T763-197q-54 54-127 85.5T480-80Zm0-80q134 0 227-93t93-227q0-134-93-227t-227-93q-134 0-227 93t-93 227q0 134 93 227t227 93Zm0-320Z"/>
<symbol>
<symbol id="skip-next" viewBox="0 -960 960 960" > 
  <path d="M660-240v-480h80v480h-80Zm-440 0v-480l360 240-360 240Zm80-240Zm0 90 136-90-136-90v180Z"/>
<symbol>
<symbol id="skip-prev" viewBox="0 -960 960 960" > 
  <path  d="M220-240v-480h80v480h-80Zm520 0L380-480l360-240v480Zm-80-240Zm0 90v-180l-136 90 136 90Z"/>
<symbol>
<symbol id="share" viewBox="0 -960 960 960"> 
  <path d="M720-80q-50 0-85-35t-35-85q0-7 1-14.5t3-13.5L322-392q-17 15-38 23.5t-44 8.5q-50 0-85-35t-35-85q0-50 35-85t85-35q23 0 44 8.5t38 23.5l282-164q-2-6-3-13.5t-1-14.5q0-50 35-85t85-35q50 0 85 35t35 85q0 50-35 85t-85 35q-23 0-44-8.5T638-672L356-508q2 6 3 13.5t1 14.5q0 7-1 14.5t-3 13.5l282 164q17-15 38-23.5t44-8.5q50 0 85 35t35 85q0 50-35 85t-85 35Zm0-640q17 0 28.5-11.5T760-760q0-17-11.5-28.5T720-800q-17 0-28.5 11.5T680-760q0 17 11.5 28.5T720-720ZM240-440q17 0 28.5-11.5T280-480q0-17-11.5-28.5T240-520q-17 0-28.5 11.5T200-480q0 17 11.5 28.5T240-440Zm480 280q17 0 28.5-11.5T760-200q0-17-11.5-28.5T720-240q-17 0-28.5 11.5T680-200q0 17 11.5 28.5T720-160Zm0-600ZM240-480Zm480 280Z"/>
<symbol>
<symbol id="chromcast" viewBox="0 -960 960 960"> 
 <path xmlns="http://www.w3.org/2000/svg" d="M480-480Zm320 320H600q0-20-1.5-40t-4.5-40h206v-480H160v46q-20-3-40-4.5T80-680v-40q0-33 23.5-56.5T160-800h640q33 0 56.5 23.5T880-720v480q0 33-23.5 56.5T800-160Zm-720 0v-120q50 0 85 35t35 85H80Zm200 0q0-83-58.5-141.5T80-360v-80q117 0 198.5 81.5T360-160h-80Zm160 0q0-75-28.5-140.5t-77-114q-48.5-48.5-114-77T80-520v-80q91 0 171 34.5T391-471q60 60 94.5 140T520-160h-80Z"/>
<symbol>
</svg>